<svg xmlns="http://www.w3.org/2000/svg" width="70" height="70" viewBox="0 0 70 70" fill="none">
<path d="M64.1666 66.3542H5.83331C4.63748 66.3542 3.64581 65.3626 3.64581 64.1667C3.64581 62.9709 4.63748 61.9792 5.83331 61.9792H64.1666C65.3625 61.9792 66.3541 62.9709 66.3541 64.1667C66.3541 65.3626 65.3625 66.3542 64.1666 66.3542Z" fill="#7B1FA2"/>
<path opacity="0.4" d="M61.25 29.1082V64.1666H8.60419L8.75002 29.079C8.75002 27.2999 9.56669 25.6084 10.9959 24.5L31.4125 8.63335C33.5125 6.97085 36.4875 6.97085 38.5875 8.63335L42.4958 11.6666L55.4167 21.7L59.0042 24.5C60.4334 25.6084 61.25 27.2999 61.25 29.1082Z" fill="#7B1FA2"/>
<path d="M37.9166 49.5833H32.0833C29.6625 49.5833 27.7083 51.5374 27.7083 53.9583V64.1666H42.2916V53.9583C42.2916 51.5374 40.3375 49.5833 37.9166 49.5833Z" fill="#7B1FA2"/>
<path d="M27.7083 40.1041H21.875C20.2708 40.1041 18.9583 38.7916 18.9583 37.1874V32.8124C18.9583 31.2083 20.2708 29.8958 21.875 29.8958H27.7083C29.3125 29.8958 30.625 31.2083 30.625 32.8124V37.1874C30.625 38.7916 29.3125 40.1041 27.7083 40.1041Z" fill="#7B1FA2"/>
<path d="M48.125 40.1041H42.2917C40.6875 40.1041 39.375 38.7916 39.375 37.1874V32.8124C39.375 31.2083 40.6875 29.8958 42.2917 29.8958H48.125C49.7292 29.8958 51.0417 31.2083 51.0417 32.8124V37.1874C51.0417 38.7916 49.7292 40.1041 48.125 40.1041Z" fill="#7B1FA2"/>
<path d="M55.4167 21.7001L42.4958 11.6667H52.4417C54.0458 11.6667 55.3583 12.9501 55.3583 14.5542L55.4167 21.7001Z" fill="#7B1FA2"/>
</svg>