<svg xmlns="http://www.w3.org/2000/svg" width="70" height="70" viewBox="0 0 70 70" fill="none">
  <path opacity="0.4" d="M53.6083 37.45V51.8291C53.6083 55.5333 50.7208 59.4999 47.25 60.6666L37.9458 63.7583C36.3125 64.3125 33.6583 64.3125 32.0542 63.7583L22.75 60.6666C19.25 59.4999 16.3917 55.5333 16.3917 51.8291L16.4208 37.45L29.3125 45.85C32.4625 47.9208 37.6542 47.9208 40.8042 45.85L53.6083 37.45Z" fill="#7B1FA2"/>
  <path d="M58.275 18.8416L40.8042 7.37905C37.6542 5.30822 32.4625 5.30822 29.3125 7.37905L11.7542 18.8416C6.125 22.4874 6.125 30.7416 11.7542 34.4166L16.4208 37.4499L29.3125 45.8499C32.4625 47.9207 37.6542 47.9207 40.8042 45.8499L53.6083 37.4499L57.6042 34.8249V43.7499C57.6042 44.9457 58.5958 45.9374 59.7917 45.9374C60.9875 45.9374 61.9792 44.9457 61.9792 43.7499V29.3999C63.1458 25.6374 61.95 21.2624 58.275 18.8416Z" fill="#7B1FA2"/>
</svg>