<svg width="70" height="70" viewBox="0 0 70 70" fill="none" xmlns="http://www.w3.org/2000/svg">
<path d="M35 34.9999C43.0542 34.9999 49.5833 28.4707 49.5833 20.4166C49.5833 12.3624 43.0542 5.83325 35 5.83325C26.9459 5.83325 20.4167 12.3624 20.4167 20.4166C20.4167 28.4707 26.9459 34.9999 35 34.9999Z" fill="#7B1FA2"/>
<path opacity="0.4" d="M35 42.2917C20.3875 42.2917 8.48743 52.0917 8.48743 64.1667C8.48743 64.9834 9.12909 65.6251 9.94576 65.6251H60.0542C60.8709 65.6251 61.5126 64.9834 61.5126 64.1667C61.5126 52.0917 49.6125 42.2917 35 42.2917Z" fill="#7B1FA2"/>
<path d="M62.5041 42.9917C59.8791 40.3667 57.8083 41.2126 56.0292 42.9917L45.704 53.3168C45.2957 53.7252 44.9166 54.4834 44.8291 55.0376L44.2749 58.975C44.0707 60.4042 45.0624 61.3959 46.4916 61.1917L50.429 60.6375C50.9832 60.55 51.7708 60.1709 52.1499 59.7626L62.4749 49.4376C64.2832 47.6876 65.1291 45.6167 62.5041 42.9917Z" fill="#7B1FA2"/>
</svg>
